<mxfile host="" modified="2020-06-04T09:34:41.669Z" agent="5.0 (Macintosh; Intel Mac OS X 10_15_4) AppleWebKit/537.36 (KHTML, like Gecko) Code/1.45.1 Chrome/78.0.3904.130 Electron/7.2.4 Safari/537.36" etag="l5idYC9fnOZOPT6u92Me" version="13.1.3">
    <diagram id="6hGFLwfOUW9BJ-s0fimq" name="Page-1">
        <mxGraphModel dx="741" dy="461" grid="1" gridSize="10" guides="1" tooltips="1" connect="1" arrows="1" fold="1" page="1" pageScale="1" pageWidth="827" pageHeight="1169" math="0" shadow="0">
            <root>
                <mxCell id="0"/>
                <mxCell id="1" parent="0"/>
                <mxCell id="2" value="" style="rounded=0;whiteSpace=wrap;html=1;dashed=1;" parent="1" vertex="1">
                    <mxGeometry x="280" y="70" width="520" height="770" as="geometry"/>
                </mxCell>
                <mxCell id="52" style="edgeStyle=orthogonalEdgeStyle;rounded=0;orthogonalLoop=1;jettySize=auto;html=1;labelBackgroundColor=none;fontSize=17;" parent="1" source="3" target="13" edge="1">
                    <mxGeometry relative="1" as="geometry">
                        <Array as="points">
                            <mxPoint x="105" y="260"/>
                        </Array>
                    </mxGeometry>
                </mxCell>
                <mxCell id="3" value="End User" style="shape=umlActor;verticalLabelPosition=bottom;labelBackgroundColor=none;verticalAlign=top;html=1;outlineConnect=0;fontStyle=0" parent="1" vertex="1">
                    <mxGeometry x="140" y="260" width="30" height="60" as="geometry"/>
                </mxCell>
                <mxCell id="13" value="User" style="shape=umlActor;verticalLabelPosition=bottom;labelBackgroundColor=none;verticalAlign=top;html=1;outlineConnect=0;" parent="1" vertex="1">
                    <mxGeometry x="90" y="100" width="30" height="60" as="geometry"/>
                </mxCell>
                <mxCell id="21" style="edgeStyle=orthogonalEdgeStyle;rounded=0;orthogonalLoop=1;jettySize=auto;html=1;exitX=0.5;exitY=0;exitDx=0;exitDy=0;exitPerimeter=0;" parent="1" source="20" target="13" edge="1">
                    <mxGeometry relative="1" as="geometry"/>
                </mxCell>
                <mxCell id="20" value="Adminstration" style="shape=umlActor;verticalLabelPosition=bottom;labelBackgroundColor=none;verticalAlign=top;html=1;outlineConnect=0;fontStyle=0" parent="1" vertex="1">
                    <mxGeometry x="90" y="420" width="30" height="60" as="geometry"/>
                </mxCell>
                <mxCell id="22" value="System" style="text;html=1;strokeColor=none;fillColor=none;align=center;verticalAlign=middle;whiteSpace=wrap;rounded=0;labelBackgroundColor=none;" parent="1" vertex="1">
                    <mxGeometry x="380" y="50" width="40" height="20" as="geometry"/>
                </mxCell>
                <mxCell id="28" value="Search Book Information" style="ellipse;whiteSpace=wrap;html=1;labelBackgroundColor=none;fontSize=17;labelBorderColor=none;" parent="1" vertex="1">
                    <mxGeometry x="325" y="200" width="150" height="80" as="geometry"/>
                </mxCell>
                <mxCell id="29" value="Sign In" style="ellipse;whiteSpace=wrap;html=1;labelBackgroundColor=none;fontSize=17;labelBorderColor=none;" parent="1" vertex="1">
                    <mxGeometry x="325" y="90" width="150" height="80" as="geometry"/>
                </mxCell>
                <mxCell id="30" value="" style="endArrow=none;html=1;fontSize=17;entryX=0;entryY=0.5;entryDx=0;entryDy=0;" parent="1" source="13" target="29" edge="1">
                    <mxGeometry width="50" height="50" relative="1" as="geometry">
                        <mxPoint x="390" y="290" as="sourcePoint"/>
                        <mxPoint x="440" y="240" as="targetPoint"/>
                    </mxGeometry>
                </mxCell>
                <mxCell id="32" value="" style="endArrow=none;html=1;fontSize=17;entryX=0;entryY=0.5;entryDx=0;entryDy=0;" parent="1" target="28" edge="1">
                    <mxGeometry width="50" height="50" relative="1" as="geometry">
                        <mxPoint x="120" y="140" as="sourcePoint"/>
                        <mxPoint x="440" y="240" as="targetPoint"/>
                        <Array as="points">
                            <mxPoint x="325" y="140"/>
                        </Array>
                    </mxGeometry>
                </mxCell>
                <mxCell id="34" value="Delete Book&amp;nbsp;" style="ellipse;whiteSpace=wrap;html=1;labelBackgroundColor=none;fontSize=17;labelBorderColor=none;" parent="1" vertex="1">
                    <mxGeometry x="325" y="310" width="150" height="80" as="geometry"/>
                </mxCell>
                <mxCell id="35" value="Sign Up" style="ellipse;whiteSpace=wrap;html=1;labelBackgroundColor=none;fontSize=17;labelBorderColor=none;" parent="1" vertex="1">
                    <mxGeometry x="325" y="530" width="150" height="80" as="geometry"/>
                </mxCell>
                <mxCell id="36" value="Manage User" style="ellipse;whiteSpace=wrap;html=1;labelBackgroundColor=none;fontSize=17;labelBorderColor=none;" parent="1" vertex="1">
                    <mxGeometry x="325" y="740" width="150" height="80" as="geometry"/>
                </mxCell>
                <mxCell id="38" value="" style="endArrow=none;html=1;fontSize=17;entryX=0;entryY=0.5;entryDx=0;entryDy=0;" parent="1" target="35" edge="1">
                    <mxGeometry width="50" height="50" relative="1" as="geometry">
                        <mxPoint x="170" y="280" as="sourcePoint"/>
                        <mxPoint x="440" y="440" as="targetPoint"/>
                        <Array as="points">
                            <mxPoint x="260" y="280"/>
                            <mxPoint x="260" y="570"/>
                        </Array>
                    </mxGeometry>
                </mxCell>
                <mxCell id="39" value="" style="endArrow=none;html=1;fontSize=17;entryX=0;entryY=0.5;entryDx=0;entryDy=0;exitX=1;exitY=1;exitDx=0;exitDy=0;exitPerimeter=0;" parent="1" source="13" target="34" edge="1">
                    <mxGeometry width="50" height="50" relative="1" as="geometry">
                        <mxPoint x="120" y="140" as="sourcePoint"/>
                        <mxPoint x="250" y="330" as="targetPoint"/>
                        <Array as="points">
                            <mxPoint x="310" y="160"/>
                            <mxPoint x="310" y="350"/>
                        </Array>
                    </mxGeometry>
                </mxCell>
                <mxCell id="40" value="" style="endArrow=none;html=1;fontSize=17;exitX=1;exitY=0.3333333333333333;exitDx=0;exitDy=0;exitPerimeter=0;entryX=0;entryY=0.5;entryDx=0;entryDy=0;" parent="1" source="20" target="36" edge="1">
                    <mxGeometry width="50" height="50" relative="1" as="geometry">
                        <mxPoint x="180" y="290" as="sourcePoint"/>
                        <mxPoint x="335" y="480" as="targetPoint"/>
                        <Array as="points">
                            <mxPoint x="120" y="780"/>
                        </Array>
                    </mxGeometry>
                </mxCell>
                <mxCell id="46" value="&amp;lt;&amp;lt;include&amp;gt;&amp;gt;" style="edgeStyle=orthogonalEdgeStyle;rounded=0;orthogonalLoop=1;jettySize=auto;exitX=1;exitY=0.5;exitDx=0;exitDy=0;entryX=1;entryY=0.5;entryDx=0;entryDy=0;fontSize=17;dashed=1;labelPosition=right;verticalLabelPosition=middle;align=left;verticalAlign=middle;html=1;labelBackgroundColor=none;" parent="1" source="41" target="28" edge="1">
                    <mxGeometry relative="1" as="geometry"/>
                </mxCell>
                <mxCell id="41" value="Buy Book" style="ellipse;whiteSpace=wrap;html=1;labelBackgroundColor=none;fontSize=17;labelBorderColor=none;" parent="1" vertex="1">
                    <mxGeometry x="325" y="420" width="150" height="80" as="geometry"/>
                </mxCell>
                <mxCell id="42" value="" style="endArrow=none;html=1;fontSize=17;entryX=0;entryY=0.5;entryDx=0;entryDy=0;exitX=0.75;exitY=0.1;exitDx=0;exitDy=0;exitPerimeter=0;" parent="1" source="3" target="41" edge="1">
                    <mxGeometry width="50" height="50" relative="1" as="geometry">
                        <mxPoint x="170" y="280" as="sourcePoint"/>
                        <mxPoint x="335" y="580" as="targetPoint"/>
                        <Array as="points">
                            <mxPoint x="290" y="266"/>
                            <mxPoint x="290" y="460"/>
                        </Array>
                    </mxGeometry>
                </mxCell>
                <mxCell id="43" value="2" style="text;html=1;strokeColor=none;fillColor=none;align=center;verticalAlign=middle;whiteSpace=wrap;rounded=0;labelBackgroundColor=none;fontSize=17;" parent="1" vertex="1">
                    <mxGeometry x="170" y="190" width="40" height="20" as="geometry"/>
                </mxCell>
                <mxCell id="47" value="Register Book&amp;nbsp;" style="ellipse;whiteSpace=wrap;html=1;labelBackgroundColor=none;fontSize=17;labelBorderColor=none;" parent="1" vertex="1">
                    <mxGeometry x="325" y="640" width="150" height="80" as="geometry"/>
                </mxCell>
                <mxCell id="48" value="" style="endArrow=none;html=1;fontSize=17;entryX=0;entryY=0.5;entryDx=0;entryDy=0;" parent="1" source="3" target="47" edge="1">
                    <mxGeometry width="50" height="50" relative="1" as="geometry">
                        <mxPoint x="180" y="290" as="sourcePoint"/>
                        <mxPoint x="335" y="580" as="targetPoint"/>
                        <Array as="points">
                            <mxPoint x="160" y="680"/>
                        </Array>
                    </mxGeometry>
                </mxCell>
                <mxCell id="59" value="&amp;lt;&amp;lt;extend&amp;gt;&amp;gt;" style="edgeStyle=orthogonalEdgeStyle;rounded=0;orthogonalLoop=1;jettySize=auto;html=1;exitX=0;exitY=0.5;exitDx=0;exitDy=0;entryX=1;entryY=0.5;entryDx=0;entryDy=0;labelBackgroundColor=none;fontSize=17;dashed=1;" parent="1" source="54" target="36" edge="1">
                    <mxGeometry x="-0.4286" y="-20" relative="1" as="geometry">
                        <Array as="points">
                            <mxPoint x="500" y="680"/>
                            <mxPoint x="500" y="780"/>
                        </Array>
                        <mxPoint x="-1" as="offset"/>
                    </mxGeometry>
                </mxCell>
                <mxCell id="54" value="Change User&lt;br&gt;Status" style="ellipse;whiteSpace=wrap;html=1;labelBackgroundColor=none;fontSize=17;labelBorderColor=none;" parent="1" vertex="1">
                    <mxGeometry x="620" y="640" width="150" height="80" as="geometry"/>
                </mxCell>
                <mxCell id="60" value="&amp;lt;&amp;lt;extend&amp;gt;&amp;gt;" style="edgeStyle=orthogonalEdgeStyle;rounded=0;orthogonalLoop=1;jettySize=auto;html=1;exitX=0;exitY=0.5;exitDx=0;exitDy=0;labelBackgroundColor=none;fontSize=17;dashed=1;" parent="1" source="55" target="36" edge="1">
                    <mxGeometry x="-0.0345" y="10" relative="1" as="geometry">
                        <mxPoint x="-1" as="offset"/>
                    </mxGeometry>
                </mxCell>
                <mxCell id="55" value="Delete User" style="ellipse;whiteSpace=wrap;html=1;labelBackgroundColor=none;fontSize=17;labelBorderColor=none;" parent="1" vertex="1">
                    <mxGeometry x="620" y="740" width="150" height="80" as="geometry"/>
                </mxCell>
            </root>
        </mxGraphModel>
    </diagram>
</mxfile>